<svg width="429" height="429" viewBox="0 0 429 429" fill="none" xmlns="http://www.w3.org/2000/svg">
<path d="M21.1769 122.381L28.1367 113.001L58.0117 119.727L49.0021 131.87L39.0468 129.713L33.8031 136.78L39.1106 145.201L37.3706 147.546L21.1769 122.381ZM36.42 129.159L27.73 127.243L32.368 134.619L36.42 129.159Z" fill="#dad3c1"/>
<path d="M41.2767 95.2218L51.4024 85.4961L69.136 103.959L80.0984 93.4298L81.7609 95.1607L60.6727 115.416L41.2767 95.2218Z" fill="#dad3c1"/>
<path d="M71.6226 66.8854L93.8776 52.1703C95.0121 51.4202 96.2303 51.0143 97.5322 50.9527C98.8417 50.8541 100.091 51.0992 101.279 51.688C102.453 52.2545 103.415 53.105 104.165 54.2394C104.886 55.3294 105.303 56.5402 105.416 57.8719C105.529 59.2037 105.34 60.464 104.847 61.6529C106.149 61.6874 107.397 62.0286 108.593 62.6766C109.774 63.3024 110.725 64.1602 111.445 65.2502C112.181 66.3624 112.587 67.5806 112.663 68.9047C112.725 70.2067 112.461 71.4519 111.872 72.6404C111.306 73.8143 110.455 74.7762 109.321 75.5263L87.0658 90.2415L71.6226 66.8854ZM90.9163 69.5213C91.7171 68.9918 92.3261 68.3174 92.7434 67.498C93.1682 66.6416 93.3491 65.7548 93.286 64.8375C93.2305 63.8832 92.9453 63.0167 92.4305 62.2382C91.901 61.4374 91.2155 60.8357 90.3739 60.4332C89.5398 59.9936 88.6456 59.8016 87.6913 59.8572C86.7592 59.898 85.8928 60.1832 85.092 60.7127L84.5915 61.0436L90.3938 69.8188C90.5197 69.7675 90.6939 69.6684 90.9163 69.5213ZM97.9982 80.2317C98.7989 79.7022 99.408 79.0278 99.8252 78.2084C100.25 77.3521 100.431 76.4652 100.368 75.5479C100.312 74.5936 100.02 73.716 99.4903 72.9153C98.9755 72.1367 98.2973 71.5462 97.4557 71.1436C96.6216 70.7041 95.7348 70.5232 94.7952 70.601C93.8631 70.6418 92.9967 70.927 92.1959 71.4565L91.6954 71.7874L97.4756 80.5293C97.6015 80.478 97.7757 80.3788 97.9982 80.2317Z" fill="#dad3c1"/>
<path d="M136.188 63.5796C131.732 65.4335 128.272 66.1074 125.808 65.6014C123.37 65.0851 121.592 63.4851 120.476 60.8014L112.948 42.7048L127.056 36.8359L134.584 54.9326C135.311 56.6807 136.225 57.8022 137.326 58.2972C138.442 58.7573 139.64 58.7211 140.92 58.1885C143.776 57.0004 144.508 54.7321 143.115 51.3836L135.587 33.287L137.766 32.3805L145.294 50.4771C146.165 52.57 146.397 54.3793 145.992 55.9052C145.577 57.4065 144.581 58.7598 143.002 59.9651C141.414 61.1457 139.143 62.3506 136.188 63.5796Z" fill="#dad3c1"/>
<path d="M159.075 36.5412L162.24 54.9105L159.915 55.3112L155.16 27.7179L166.671 25.7346L174.409 36.2533L176.998 23.955L189.612 21.7816L194.367 49.375L181.753 51.5484L178.187 30.8534L173.711 52.934L170.282 53.5249L159.075 36.5412Z" fill="#dad3c1"/>
<path d="M234.35 22.9989L255.226 25.6234C259.01 26.099 262.108 27.8592 264.52 30.9039C266.903 33.9717 267.854 37.4106 267.375 41.2206C266.89 45.0836 265.113 48.2063 262.045 50.5889C258.981 52.9451 255.543 53.8837 251.733 53.4047L230.858 50.7802L234.35 22.9989ZM247.419 50.524C248.927 50.7136 250.073 50.3605 250.858 49.4647C251.613 48.592 252.179 47.2925 252.558 45.5663C252.833 44.4452 253.155 42.4162 253.524 39.4793C253.81 37.2039 254.004 35.0243 254.105 32.9406C254.142 31.3596 253.895 30.1191 253.363 29.219C252.825 28.1569 251.815 27.5327 250.333 27.3465L247.952 27.0471L245.038 50.2246L247.419 50.524Z" fill="#dad3c1"/>
<path d="M282.073 32.6368L306.634 43.2595C307.834 43.7782 308.803 44.5605 309.542 45.6064C310.315 46.6384 310.774 47.7954 310.917 49.0775C311.095 50.3456 310.924 51.5793 310.405 52.7786C309.717 54.3695 308.603 55.6019 307.063 56.4757C305.523 57.3494 303.927 57.647 302.275 57.3684C303.438 58.3072 304.214 59.4705 304.601 60.8584C305.013 62.2569 304.939 63.6047 304.378 64.9019L301.504 71.5471L289.205 66.2278L292.65 58.261C292.989 57.4777 293.107 56.8023 293.004 56.2347C292.883 55.5726 292.656 55.0238 292.321 54.5885C291.948 54.1076 291.482 53.6736 290.923 53.2866C290.34 52.889 289.772 52.5562 289.219 52.2882L288.244 51.8228L283.147 63.6078L270.958 58.3361L282.073 32.6368ZM290.45 50.2492C291.331 50.6303 292.229 50.7715 293.143 50.673C294.092 50.5606 294.934 50.2273 295.667 49.673C296.436 49.1048 297.006 48.3923 297.376 47.5357C297.757 46.6546 297.886 45.7516 297.763 44.8268C297.675 43.8881 297.347 43.0344 296.779 42.2657C296.235 41.5075 295.523 40.9379 294.642 40.5568L293.357 40.0011L289.149 49.7301L290.45 50.2492Z" fill="#dad3c1"/>
<path d="M323.205 85.6208C320.389 83.4209 318.183 81.0035 316.587 78.3689C314.991 75.7342 314.187 73.0592 314.177 70.3438C314.204 67.6238 315.145 65.0765 317 62.702C318.839 60.3485 321.077 58.8483 323.714 58.2015C326.351 57.5547 329.131 57.6789 332.052 58.574C335.011 59.4646 337.899 61.0098 340.715 63.2098C343.509 65.3933 345.686 67.8047 347.245 70.444C348.842 73.0787 349.634 75.7455 349.624 78.4445C349.634 81.1599 348.72 83.6943 346.881 86.0479C345.026 88.4224 342.772 89.9436 340.118 90.6114C337.502 91.2746 334.722 91.1504 331.78 90.2388C328.858 89.3437 326 87.8044 323.205 85.6208ZM324.658 83.7611C325.541 84.4507 326.504 84.5603 327.548 84.0902C328.382 83.7599 329.469 82.8665 330.81 81.41C331.513 80.6397 332.825 79.0253 334.746 76.5667C336.683 74.0871 338.002 72.2914 338.701 71.1796C339.623 69.8696 340.139 68.7328 340.249 67.7695C340.452 66.6426 340.123 65.7426 339.262 65.0695C338.379 64.38 337.405 64.2621 336.34 64.7158C335.49 65.0671 334.512 65.8426 333.406 67.0424C332.468 68.0694 331.055 69.7912 329.167 72.2078C327.033 74.9396 325.784 76.6033 325.42 77.1989C324.371 78.7145 323.757 79.9773 323.577 80.9872C323.394 82.1305 323.755 83.0552 324.658 83.7611Z" fill="#dad3c1"/>
<path d="M365.871 84.36L383.592 102.557C385.229 104.239 386.063 106.069 386.093 108.05C386.142 110.012 385.346 111.793 383.703 113.393C382.728 114.341 381.588 114.986 380.283 115.327C378.977 115.668 377.666 115.66 376.351 115.303C375.036 114.947 373.857 114.233 372.815 113.163L364.275 104.451L355.076 113.409L345.811 103.894L365.871 84.36ZM366.914 103.835C367.584 104.523 368.36 104.995 369.243 105.252C370.164 105.509 371.069 105.521 371.958 105.288C372.885 105.055 373.683 104.613 374.352 103.962C375.04 103.292 375.503 102.507 375.741 101.605C376.017 100.703 376.038 99.7887 375.806 98.8616C375.591 97.9535 375.149 97.1556 374.48 96.4679L373.503 95.4649L365.937 102.832L366.914 103.835Z" fill="#dad3c1"/>
<path d="M397.925 141.004C398.96 144.123 399.32 146.728 399.007 148.82C398.716 150.897 397.635 152.552 395.765 153.785C394.274 154.769 392.63 155.183 390.834 155.026C389.037 154.869 387.203 154.098 385.331 152.714C383.474 151.351 381.694 149.379 379.99 146.797C377.979 143.747 376.592 140.797 375.829 137.945C375.103 135.102 374.875 132.649 375.144 130.587L377.373 130.697C377.224 132.457 377.407 134.429 377.921 136.613C378.436 138.797 379.361 140.902 380.697 142.928C381.563 144.241 382.406 145.107 383.225 145.525C384.059 145.966 384.82 145.958 385.51 145.503C386.713 144.71 386.862 142.903 385.959 140.08L384.364 134.903C383.52 132.073 383.306 129.595 383.724 127.467C384.156 125.361 385.24 123.735 386.976 122.59C388.423 121.636 390.037 121.226 391.819 121.36C393.601 121.494 395.398 122.21 397.211 123.505C399.061 124.809 400.794 126.685 402.409 129.133C403.951 131.471 405.101 133.795 405.859 136.106C406.631 138.44 407.05 140.479 407.116 142.225L404.853 142.136C404.764 140.694 404.446 139.098 403.9 137.35C403.369 135.624 402.574 133.96 401.517 132.357C400.592 130.955 399.657 130.022 398.713 129.559C397.805 129.103 396.973 129.125 396.216 129.624C395.637 130.006 395.309 130.622 395.231 131.472C395.175 132.308 395.45 133.644 396.054 135.481L397.925 141.004Z" fill="#dad3c1"/>
</svg>
