<svg width="423" height="423" viewBox="0 0 423 423" fill="none" xmlns="http://www.w3.org/2000/svg">
<path d="M38.443 138.779L17.6783 111.698L19.0749 109.816L51.0122 121.839L48.219 125.603C43.5235 124.065 40.4775 124.237 39.0809 126.119C37.6843 128.001 38.4027 130.966 41.2361 135.014L38.443 138.779ZM27.7876 117.74L35.1038 127.546C35.2456 124.733 36.6422 122.85 39.2936 121.899L27.7876 117.74Z" fill="#dad3c1"/>
<path d="M40.319 85.3164L43.6997 82.0693L63.1824 102.353L71.634 94.2355L74.8811 97.6162L63.0488 108.981L40.319 85.3164Z" fill="#dad3c1"/>
<path d="M88.1772 71.5535L90.1797 70.3357C91.8351 69.329 92.893 67.881 93.3533 65.9917C93.8137 64.1024 93.5405 62.3301 92.5338 60.6747C91.527 59.0193 90.079 57.9614 88.1898 57.501C86.3005 57.0407 84.5282 57.3139 82.8728 58.3206L80.8702 59.5384L88.1772 71.5535ZM74.4296 57.969L80.4371 54.3156C83.2006 52.635 86.1536 52.1832 89.2962 52.9604C92.444 53.716 94.8582 55.4756 96.5388 58.239C98.2194 61.0025 98.6778 63.9515 97.914 67.0859C97.6577 68.1379 97.2923 69.1008 96.8179 69.9745C98.078 70.5431 99.0857 71.4482 99.8407 72.6898C100.847 74.3452 101.121 76.1175 100.66 78.0068C100.2 79.8961 99.142 81.3441 97.4866 82.3508L91.4791 86.0043L74.4296 57.969ZM90.6128 75.5586L93.0485 79.5636L95.051 78.3458C95.5983 78.0129 95.9479 77.5352 96.0996 76.9126C96.2565 76.2685 96.1685 75.6728 95.8357 75.1254C95.5028 74.5781 95.0184 74.2326 94.3824 74.089C93.7517 73.924 93.1627 74.0079 92.6153 74.3407L90.6128 75.5586Z" fill="#dad3c1"/>
<path d="M118.615 59.3545L109.613 37.7147L113.941 35.9143L122.943 57.5541C123.441 58.7515 124.286 59.6017 125.477 60.1048C126.676 60.5874 127.874 60.5797 129.072 60.0816C130.269 59.5835 131.112 58.742 131.601 57.5572C132.098 56.352 132.097 55.1506 131.599 53.9532L122.597 32.3135L126.925 30.5131L135.927 52.1528C136.923 54.5476 136.929 56.9401 135.943 59.3301C134.957 61.7202 133.267 63.4133 130.872 64.4096C128.477 65.4058 126.085 65.411 123.695 64.4253C121.305 63.4395 119.611 61.7493 118.615 59.3545Z" fill="#dad3c1"/>
<path d="M152.782 22.9799L152.626 22.7688L157.777 21.8814L165.018 31.883L168.494 20.0348L173.645 19.1473L173.569 19.3982L179.101 51.5032L174.482 52.2991L170.573 29.6177L166.825 42.3691L159.025 31.6076L162.933 54.289L158.314 55.085L152.782 22.9799Z" fill="#dad3c1"/>
<path d="M234.691 19.9538C239.187 20.519 242.824 22.5904 245.603 26.1681C248.381 29.7457 249.488 33.7825 248.923 38.2783C248.357 42.7742 246.286 46.4114 242.708 49.19C239.131 51.9685 235.094 53.0752 230.598 52.51L225.947 51.9253L230.04 19.369L234.691 19.9538ZM231.183 47.8591C234.392 48.2625 237.27 47.4748 239.818 45.4959C242.384 43.5035 243.868 40.9027 244.272 37.6936C244.675 34.4845 243.88 31.605 241.885 29.0551C239.908 26.4916 237.315 25.0081 234.106 24.6046L231.183 47.8591Z" fill="#dad3c1"/>
<path d="M273.701 51.3715L274.79 51.8063C276.894 52.647 278.981 52.6231 281.052 51.7345C283.144 50.8372 284.61 49.3366 285.451 47.2327C286.292 45.1288 286.26 43.0383 285.357 40.9612C284.475 38.8753 282.981 37.412 280.877 36.5713L279.789 36.1365L273.701 51.3715ZM280.893 56.7439L280.888 66.8629L275.882 64.8626L275.884 56.9633C274.938 56.8041 273.993 56.536 273.05 56.1592L271.962 55.7243L269.353 62.2536L265 60.5143L277.176 30.0443L282.617 32.2185C285.925 33.5404 288.28 35.8361 289.683 39.1056C291.085 42.3751 291.126 45.6639 289.804 48.9721C288.482 52.2802 286.186 54.6356 282.917 56.0382C282.247 56.3257 281.572 56.5609 280.893 56.7439Z" fill="#dad3c1"/>
<path d="M328.094 61.4174C325.545 59.4261 322.659 58.6284 319.435 59.0242C316.233 59.4174 313.636 60.8884 311.645 63.4371C309.653 65.9858 308.85 68.8674 309.233 72.0818C309.639 75.2936 311.116 77.8951 313.664 79.8864C316.213 81.8776 319.089 82.6767 322.291 82.2835C325.515 81.8877 328.122 80.4154 330.114 77.8666C332.105 75.3179 332.898 72.4377 332.492 69.2259C332.109 66.0115 330.643 63.4086 328.094 61.4174ZM310.779 83.5802C307.208 80.7904 305.147 77.1475 304.594 72.6514C304.042 68.1552 305.161 64.1218 307.951 60.5512C310.741 56.9805 314.384 54.9191 318.88 54.3671C323.376 53.815 327.409 54.9338 330.98 57.7236C334.551 60.5133 336.612 64.1562 337.164 68.6523C337.716 73.1485 336.597 77.1819 333.808 80.7526C331.018 84.3232 327.375 86.3846 322.879 86.9366C318.383 87.4887 314.349 86.3699 310.779 83.5802Z" fill="#dad3c1"/>
<path d="M351.615 100.652L352.432 101.491C354.013 103.114 355.93 103.941 358.184 103.971C360.459 104.001 362.409 103.226 364.032 101.645C365.655 100.065 366.476 98.1418 366.495 95.8769C366.537 93.6123 365.767 91.6684 364.186 90.0453L363.369 89.2057L351.615 100.652ZM348.256 103.922L343.219 108.827L339.949 105.469L363.457 82.5771L367.544 86.775C370.03 89.3273 371.249 92.3821 371.202 95.9394C371.154 99.4967 369.855 102.518 367.302 105.003C364.75 107.489 361.695 108.708 358.138 108.661C354.581 108.614 351.559 107.314 349.074 104.761L348.256 103.922Z" fill="#dad3c1"/>
<path d="M397.695 124.594L401.566 130.464L397.653 133.045L393.782 127.175C393.068 126.093 392.072 125.421 390.795 125.159C389.539 124.901 388.37 125.129 387.288 125.844C385.983 126.704 385.429 129.41 385.623 133.961C385.817 138.512 384.61 141.648 382.002 143.369C379.837 144.797 377.488 145.252 374.955 144.732C372.423 144.213 370.442 142.871 369.014 140.705L365.142 134.836L369.055 132.255L372.927 138.124C373.641 139.207 374.626 139.877 375.881 140.134C377.158 140.396 378.338 140.17 379.421 139.456C380.725 138.596 381.28 135.89 381.086 131.339C380.891 126.787 382.098 123.651 384.707 121.931C386.872 120.502 389.221 120.048 391.753 120.567C394.286 121.087 396.266 122.429 397.695 124.594Z" fill="#dad3c1"/>
</svg>
